<svg xmlns="http://www.w3.org/2000/svg">
  <g fill="#fff">
    <path d="M109.707 14.289c-.233.258-.392.61-.477 1.054l2.79.004c-.063-.455-.213-.81-.45-1.064a1.174 1.174 0 0 0-.895-.382c-.413 0-.735.129-.968.388zm-.8 5.86a4.144 4.144 0 0 1-1.394-.89 3.916 3.916 0 0 1-.901-1.358 4.557 4.557 0 0 1-.315-1.721c0-.614.107-1.182.32-1.705.212-.524.508-.978.889-1.363.38-.386.835-.686 1.364-.903a4.55 4.55 0 0 1 1.744-.322c.634 0 1.196.1 1.687.296.491.196.922.463 1.29.802.497.456.86 1.027 1.092 1.715.232.688.336 1.433.314 2.237l-5.769-.008c.084.476.255.846.514 1.111.258.265.615.397 1.069.398.528.001.904-.2 1.126-.6l2.9.003c-.085.37-.262.724-.532 1.062-.27.338-.606.634-1.008.887-.37.243-.764.417-1.181.522a5.715 5.715 0 0 1-1.403.156c-.665 0-1.268-.107-1.806-.32zm-8.851.011a4.227 4.227 0 0 1-1.402-.898 3.914 3.914 0 0 1-.901-1.358 4.51 4.51 0 0 1-.315-1.705c.001-.614.107-1.182.32-1.705.211-.523.513-.978.905-1.363.391-.385.86-.686 1.404-.902a4.865 4.865 0 0 1 1.815-.323c.57 0 1.09.081 1.56.24.47.16.877.382 1.22.668.343.286.62.628.83 1.025.211.396.343.833.395 1.309l-2.885-.004c-.084-.37-.215-.654-.395-.85-.179-.195-.432-.294-.76-.294-.465 0-.809.195-1.03.586-.223.39-.335.93-.336 1.617 0 .677.115 1.208.347 1.595.232.386.58.58 1.045.58.37 0 .647-.118.832-.356.186-.237.3-.589.343-1.054l2.884.004a3.304 3.304 0 0 1-1.12 2.505 3.832 3.832 0 0 1-1.286.743 4.88 4.88 0 0 1-1.656.268 4.868 4.868 0 0 1-1.814-.328zm-5.863-6.805c.329-.507.691-.866 1.087-1.077.397-.211.854-.316 1.372-.316.222 0 .385.027.49.08l-.003 2.554h-.063c-.887-.15-1.574-.031-2.06.354-.487.385-.731 1.038-.732 1.958l-.005 3.315-2.995-.004.01-8.09 2.853.004-.001 1.222h.047zm-6.838 5.812h-.048a3.246 3.246 0 0 1-1.07.966c-.408.221-.891.332-1.451.33-.486 0-.909-.077-1.268-.23a2.419 2.419 0 0 1-.895-.645 2.771 2.771 0 0 1-.537-.984 4.16 4.16 0 0 1-.18-1.27l.007-5.218 2.995.004-.006 4.505c-.001.857.357 1.286 1.076 1.287.39 0 .695-.126.912-.38.217-.253.325-.602.326-1.046l.006-4.362 2.995.004-.01 8.09-2.854-.004.002-1.047zm-9.523-1.338c.233-.418.35-.97.351-1.657 0-.688-.115-1.24-.347-1.658-.231-.418-.58-.628-1.045-.628-.465-.001-.808.207-1.03.625-.223.417-.335.97-.336 1.657 0 .687.11 1.24.33 1.658.222.418.565.627 1.03.628.465 0 .814-.208 1.047-.625zm-2.848 2.296a4.136 4.136 0 0 1-1.393-.898 3.971 3.971 0 0 1-.894-1.358 4.514 4.514 0 0 1-.315-1.705c.001-.614.108-1.182.32-1.705.212-.523.51-.978.897-1.363a4.076 4.076 0 0 1 1.396-.902c.544-.216 1.155-.324 1.83-.323.677.001 1.287.11 1.831.328.544.217 1.006.52 1.386.906.38.387.672.842.877 1.365.205.524.308 1.093.307 1.706 0 .613-.105 1.182-.311 1.705-.207.523-.501.975-.882 1.355-.38.38-.843.678-1.388.894-.544.216-1.155.324-1.83.323-.677-.001-1.287-.11-1.831-.328zm-10.048.09a5.087 5.087 0 0 1-1.647-.725 3.533 3.533 0 0 1-1.108-1.215c-.268-.487-.407-1.058-.417-1.714l3.391.005c.053.455.245.79.578 1.008.332.217.773.326 1.322.327.159 0 .325-.015.5-.047.174-.031.33-.084.468-.158.137-.074.25-.171.34-.293a.714.714 0 0 0 .136-.436.655.655 0 0 0-.142-.428 1.161 1.161 0 0 0-.412-.302 4.226 4.226 0 0 0-.673-.24 31.28 31.28 0 0 0-.927-.238 21.94 21.94 0 0 1-1.457-.415 5.784 5.784 0 0 1-1.354-.628 3.248 3.248 0 0 1-.998-.993c-.258-.402-.387-.905-.386-1.508.001-.645.126-1.194.375-1.649a3.127 3.127 0 0 1 1.008-1.109c.423-.285.92-.493 1.49-.624a7.98 7.98 0 0 1 1.807-.196c.581 0 1.144.065 1.688.193a4.412 4.412 0 0 1 1.45.612c.422.281.76.641 1.012 1.08.253.44.384.966.394 1.58l-3.28-.005a1.174 1.174 0 0 0-.42-.738c-.226-.186-.567-.279-1.021-.28-.37 0-.669.074-.896.221-.227.148-.341.338-.341.571 0 .17.057.307.173.413a1.5 1.5 0 0 0 .515.278c.227.08.507.154.84.223.332.07.71.157 1.133.264.475.117.94.257 1.394.422.454.164.86.384 1.22.66.358.275.645.617.861 1.024.216.408.324.913.323 1.515 0 .625-.131 1.172-.39 1.642a3.53 3.53 0 0 1-1.056 1.18 4.892 4.892 0 0 1-1.554.72 7.045 7.045 0 0 1-1.886.243 8.385 8.385 0 0 1-2.053-.24zm-9.174-7.025a3.541 3.541 0 0 1 1.119-1.014c.418-.232.912-.347 1.482-.347.94.002 1.648.288 2.123.86.474.572.711 1.323.71 2.253l-.007 5.235-2.996-.004.006-4.505c.001-.423-.088-.762-.268-1.016-.179-.254-.464-.381-.855-.382-.38 0-.679.145-.896.435-.217.29-.326.658-.326 1.102l-.006 4.362-2.996-.004.011-8.09 2.853.004-.001 1.11h.047zm-7.043 4.598c.233-.417.35-.97.351-1.657.001-.687-.114-1.24-.346-1.658-.232-.418-.58-.627-1.045-.628-.465 0-.809.208-1.031.625-.223.417-.334.97-.335 1.657-.001.687.109 1.24.33 1.658.222.418.565.628 1.03.628.464 0 .814-.207 1.046-.625zm-2.848 2.296a4.136 4.136 0 0 1-1.393-.898 3.97 3.97 0 0 1-.894-1.357 4.513 4.513 0 0 1-.314-1.706c0-.613.107-1.182.32-1.705.211-.523.51-.977.896-1.363a4.078 4.078 0 0 1 1.396-.902c.545-.216 1.155-.324 1.831-.323.676.001 1.287.11 1.83.328a4 4 0 0 1 1.386.906c.38.387.672.842.878 1.366a4.62 4.62 0 0 1 .306 1.705c0 .614-.104 1.182-.311 1.705a3.93 3.93 0 0 1-.882 1.355 4.05 4.05 0 0 1-1.388.894c-.544.216-1.154.324-1.83.323-.677-.001-1.287-.11-1.83-.328zm-5.846-6.805c.328-.507.69-.866 1.087-1.077.397-.211.854-.316 1.371-.315.222 0 .386.026.491.08l-.003 2.553h-.063c-.888-.149-1.575-.031-2.061.354-.487.386-.73 1.038-.732 1.958l-.004 3.315-2.996-.004.011-8.09 2.853.005-.002 1.22h.048zm-3.976-1.227l-.011 8.09-2.996-.004.011-8.09 2.996.004zm.004-3.252l-.003 2.269-2.995-.005.003-2.268 2.995.004zm-18.64 13.014c-3.591-.005-5.309-1.921-5.305-4.338v-.732l4.024.006v.318c-.001.79.408 1.331 1.19 1.332.72.001 1.075-.332 1.075-.894.003-1.597-6.151-1.338-6.145-5.811.003-2.413 1.533-4.514 5.338-4.509 3.42.005 5.116 1.925 5.112 4.336v.786l-4.023-.006.001-.45c0-.649-.334-1.297-1.094-1.298-.606 0-.956.335-.957.876-.002 1.766 6.148 1.321 6.142 5.794-.003 2.414-1.607 4.595-5.358 4.59zM6.232 15.398c.543-.177 1.2-.348 1.201-.819l.005-3.155 3.986.006-.004 2.668c-.002 1.319-.445 2.06-1.42 2.33 1.02.408 1.416 1.136 1.413 2.693l-.003 2.283-3.986-.032.004-2.984c0-.595-.657-.668-1.2-.853l.004-2.137zm1.232-7.939h3.96l-.004 3.145-3.96-.006.004-3.139zM14.5 0C6.492 0 0 6.492 0 14.5S6.492 29 14.5 29 29 22.508 29 14.5 22.508 0 14.5 0z"/>
  </g>
</svg>
